<?xml version="1.0" encoding="utf-8"?>
<!-- Generator: Adobe Illustrator 27.3.1, SVG Export Plug-In . SVG Version: 6.00 Build 0)  -->
<svg version="1.1" id="Layer_1" xmlns="http://www.w3.org/2000/svg" xmlns:xlink="http://www.w3.org/1999/xlink" x="0px" y="0px"
	 viewBox="0 0 1080 1080" style="enable-background:new 0 0 1080 1080;" xml:space="preserve">
<style type="text/css">
	.st0{stroke:#000000;stroke-width:7;stroke-miterlimit:10;}
	.st1{fill:none;stroke:#000000;stroke-width:7;stroke-linecap:round;stroke-linejoin:round;stroke-miterlimit:10;}
</style>
<g>
	<path class="st0" d="M847.82,615.34c-8.08-18.87-17.61-37.01-30.28-53.36c-13.72-17.71-27.08-35.68-43.72-50.9
		c-5.59-5.12-10.56-10.92-15.35-15.92c10.03-47.65,19.59-96.22,3.19-143.15c-5.74-7.26-12.07-14.1-16.84-22.08
		c-2.64-0.79-3.69-3.62-3.15-6.04c-3.91-8.7-5.86-18.18-8.89-27.2c-2.82-2.31-5.84-4.37-9.11-6.11c-4.64-2.47-2.13-8.67,2.04-9.22
		c-0.43-1.09-0.4-2.14-0.05-3.06c-6.07-8.45-13.09-16.87-23.36-20.03c-2.85-0.9-7.19-0.18-9.63,1.54c-3.29,2.31-2.4,6.23,0.68,10.28
		c9.4,2.55,15.59,10.44,21.15,18.71c6.42,9.57,12.65,19.33,18.07,29.48c1.47,2.75,2.88,5.6,3.83,8.6c0.99,0.78,1.57,1.94,1.76,3.17
		c0.24,0.23,0.46,0.48,0.64,0.76c1.02,0.8,1.73,2.02,1.75,3.7c0.05,2.62,0.35,5.24,0.81,7.84c0.32,0.73,0.47,1.54,0.45,2.35
		c2.2,9.25,4.52,18.74,9.57,26.88c1.84,2.88,0.28,5.64-2.1,6.8c5.28,37.25,1.53,87.81-7.84,101.37
		c-32.86-28.96-66.73-56.77-101.11-83.93c-5.95-4.68-8.39-10.02-9.45-16.85c-5.98-35.46-21.73-69.26-46.55-95.35
		c-12.37-13.7-26.95-24.52-44.7-30.62c-11.01-3.78-17.64-0.26-18.59,13.99c-0.17,2.48,0.61,5.07,1.2,7.55
		c5.2,21.85,14.81,41.77,28.28,59.54c18.23,23.95,39.49,45.58,63.39,63.97c0.62,19.45-18.61,88.41-28.38,99.31
		c-38.43-29.76-76.81-59.48-114.37-88.56c-0.09-36.72-15.93-69.12-36.51-98.46c-15.14-21.52-34.75-37.51-58.55-48.36
		c-6.41-2.93-13.13-5.52-20.77-3.88c0,0,0,0,0,0c-0.14,0.16-0.29,0.3-0.46,0.44c0,0,0,0,0,0c0,0-0.01,0.01-0.01,0.01
		c-0.52,0.43-1.15,0.75-1.9,0.91c-5.31,8.89-6.49,18.63-4.78,28.58c9.22,57.62,60.6,94.43,101.1,130.87
		c-5.18,37.35-25.29,63.98-52.78,85.61c-3.64-3.93-7.07-8.17-11.05-11.81c-19.85-18.14-39.48-36.56-59.89-54.05
		c-26.77-22.95-48.18-49.43-59.75-83.21c-9.85-28.78-17.13-57.76-9.04-88.44c-3.16-5.4-7.25-5.52-12.42-2.38
		c-14.7,27.91-0.1,81.73,10.94,110.08c5.28,13.52,11.59,26.65,21.22,37.46c12.34,13.85,26.91,25.68,37.4,41.24
		c0.53,0.78,1.33,1.38,2.03,2.04c22.55,21.76,46.1,41.9,67.76,64.64c-11.38,14.16-24.58,25.3-30.35,43.11
		c-4.73,14.05-4.66,27.34,0.21,41.31c8.59,24.63,22.72,45.47,39.14,65.58c15.24,18.66,34.68,26.58,57.11,29.88
		c10.31,1.52,19.86-3.1,23.68-11.07c6.39-13.33,8.81-27.27,6.31-42.08c-9.62-51.81-42.89-90.89-73.2-132.61
		c27.7-21.05,50.5-46.4,58.62-83.06c40.26,27.38,77.42,55.85,111.28,87.99c-7.1,26.37-14.64,51.88-19.76,78.54
		c-5.32,29.06,0.31,56.96,16.78,81.77c4.62,6.96,11.41,13.6,18.75,17.35c11.09,5.67,23.87,7.8,36.44,7.15
		c14.13-0.73,27.35-4.52,35.08-18.14c9.1-16.02,11.55-33.42,8.43-51.21c-4.61-26.27-15.7-50.29-30.64-72.04
		c-12.63-18.48-28.47-33.97-42.17-51.85c15.26-29.81,24.92-61.51,32.63-95.71c36.37,30.99,72.65,58.73,106.12,90.36
		c-15.77,70.51-16.66,109.98,27.85,170.29c13.75,19.45,33.64,25.94,55.93,26.39c15.01,0.31,24.79-8.41,30.11-22.32
		C860.6,657.46,856.75,636.17,847.82,615.34z M530.95,272.41c-1.29-2.66-1.48-5.87-2.38-9.68c9.79,0.27,15.02,6.39,20.64,11
		c35.21,28.89,48.34,53.92,59.33,93.92C576.28,340.02,549.1,309.85,530.95,272.41z M422.21,567.33
		c10.74,16.22,20.66,33.06,29.93,50.17c8.61,15.9,14,32.99,12.86,51.5c-0.18,2.86-0.48,5.75-1.09,8.54
		c-2.21,10.11-6.16,12.64-16.44,10.32c-16.66-3.77-30.53-11.74-42.1-24.85c-18.93-21.46-33.38-45.14-41.91-72.51
		c-3.75-12.01-1.2-23.37,1.9-34.83c0.33-1.21,0.85-2.74,1.79-3.34c8.86-5.72,12.93-16.07,21.48-22.04c0.5-0.35,1.19-0.42,3.1-1.06
		C403.27,540.92,413.26,553.82,422.21,567.33z M451.3,394.02c-31.41-23.56-59.13-48.58-80.92-81.15
		c-5.96-8.99-12.23-18.16-14.1-29.26c-1.01-6.02-1.93-12.08,2.79-17.6c7.41,0.37,13.32,4.28,18.72,8.63
		c36.19,29.31,62.77,67.29,73.47,113.03C451.49,388.86,451.3,390.14,451.3,394.02z M601.48,543.35
		c24.81,26.59,44.68,58.57,54.08,93.87c4.03,14.24,0.89,28-3.29,41.54c-0.96,3.11-3.63,6.15-6.29,8.22
		c-16,12.41-48.75,3.85-56.17-6.05c-7.52-10.04-14.33-20.53-16.93-33.11c-3.25-15.74-6.08-31.62-2.05-47.57
		c5.33-21.06,11.25-41.97,16.98-62.92c0.32-1.17,1.18-2.18,2.64-4.79C594.72,536.71,598.22,539.92,601.48,543.35z M838.15,682.78
		c-8.87,9.67-17.7,10.43-28.37,7.62c-15.63-4.12-26.25-13.66-34.85-26.68c-16.51-24.99-28.4-51.7-30.09-81.95
		c-0.76-21.73,3.09-40.23,7.45-62.36c37.16,34.63,81.94,87.14,88.67,136.53C842.1,665.11,839.12,674.81,838.15,682.78z"/>
	<path class="st1" d="M391.06,521.16c-9.3,9.62-19.44,18.59-27.58,29.11c-4.96,6.42-6.4,15.35-7.05,23.81"/>
	<path class="st1" d="M588.23,522.12c-6.59,3.9-7.64,11.03-9.5,17.36c-5.16,17.54-10.32,35.12-14.38,52.93
		c-7.35,32.75,0.49,80.37,30.61,100.04"/>
	<path class="st1" d="M533.5,256.5c0,0-3.3,0-4.99,0c-7.68,8.65-1.73,16.77,1.05,25.02"/>
	<path class="st1" d="M750.77,507.69c-8.22,7.14-8.3,17.72-10.25,27.01c-6.85,34.65-6.07,70.95,10.48,102.78
		c6.45,13.12,14.35,25.73,23.12,37.44c6.05,8.08,14.04,15.16,24.73,17.53"/>
	<path class="st1" d="M747.04,337.28c14.57,41.05,18.66,82.94,9.71,125.76c-1.99,10.71-5.37,21.27-11.75,30.22"/>
	<path class="st1" d="M693.07,264.23c12.01-2.48,20.73,10.64,27.04,18.73"/>
	<path class="st1" d="M530.52,283.47c8.85,19.45,19.23,37.99,33.73,53.83c10.56,11.54,21.98,22.29,32.53,33.84
		c5.15,5.63,11.01,9.17,19.09,10.49c3.68,6.76,7.52,13.82,10.48,19.24c-9.79,35.56-15.82,68.62-32.41,101.01
		c-1.8,3.44-4.42,6.45-6.67,9.66"/>
	<path class="st1" d="M357.4,302.72c7.69,12.83,13.93,26.89,23.44,38.19c12.65,15.02,27.73,28.02,42.01,41.63
		c7.07,6.73,14.57,13.05,22.14,19.21c2.61,2.12,6.04,3.24,11.1,5.85c1.29,2.43,3.72,6.99,6.14,11.56"/>
	<path class="st1" d="M627.66,402.8c5.43,1.4,10.06,3.63,14.59,7.5c28.73,24.21,58.66,46.98,86.41,72.35
		c3.1,2.69,6.23,5.41,9.64,7.67c8.43,5.58,8.49,5.47,12.01,15.14c3.64,2.43,6.71,3.91,9.07,6.13
		c24.48,23.13,46.82,48.16,64.34,77.02c15.71,25.97,32.14,57.4,22.27,88.44c-0.79,2.52-1.66,5.01-2.06,8
		c-9.28,10.16-20.2,15.69-34.49,10.32c-0.84-0.32-1.91-0.04-2.87-0.04"/>
	<path class="st1" d="M616.12,381.63c2.67-7.06,2.8-13.48,0.41-21.3c-12.21-43.23-39.49-83.66-81.2-102.84"/>
	<path class="st1" d="M355.48,576.01c-0.94,18.83,7.69,34.83,15.47,50.96c8.39,17.38,20.95,31.97,33.77,46.06
		c10.02,11.02,23.43,17.07,38.29,19.42"/>
	<path class="st1" d="M459.35,423.97c-0.96,2.57-2.12,5.08-2.85,7.71c-5.4,18.85-14.11,37.05-27.04,51.88
		c-10.05,10.15-20.44,19.96-30.7,29.9"/>
	<path class="st1" d="M456.47,406.65c6.94-10.06,4.18-20.3,1.03-30.81c-13.33-44.52-41.02-85.41-81.89-108.6
		c-5.86-3.09-12.44-4.81-18.78-7.19c-8.61,14.45-4.94,27.6-0.39,40.75"/>
	<path class="st1" d="M460.31,422.04c2.66-5.75,7.19-2.45,9.49-0.78c37.96,27.08,74.65,55.76,109.8,86.4
		c1.98,1.65,4.31,2.89,7.63,5.09c0.49,1.53,1.42,4.42,1.9,5.95c28.19,21.15,48.07,50.44,63.02,81.6
		c13.24,26.83,19.29,53.84,5.42,82.57c-3.94,7.82-10.15,11.83-18.37,13.42"/>
	<path class="st1" d="M254.49,268.08c-1.6,0.3-3.21,0.6-5.14,0.96c-10.68,29.49,3.14,78.64,15.63,106.86
		c7.88,17.36,18.21,32.88,31.85,46.12c48.43,48.83,103.63,92.12,140.49,151.04c18.16,29.57,41.36,64.94,34.42,101.08
		c-1.42,6.83-2.8,14.05-9.51,18.31"/>
</g>
<g>
	<g>
		<path d="M330.74,466.35c-1.04-5.04-4.06-9.42-8.19-12.44c-1.06-0.77-2.83-0.21-3.42,0.9c-0.69,1.3-0.23,2.59,0.9,3.42
			c0.07,0.05,0.46,0.35,0.16,0.11c-0.31-0.25,0.12,0.1,0.15,0.12c0.2,0.16,0.39,0.33,0.58,0.5c0.38,0.34,0.75,0.7,1.1,1.07
			c0.34,0.37,0.82,0.79,1.06,1.23c-0.13-0.23-0.24-0.31-0.03-0.03c0.07,0.09,0.13,0.18,0.2,0.28c0.16,0.23,0.32,0.47,0.48,0.71
			c0.28,0.43,0.53,0.88,0.77,1.33c0.12,0.23,0.23,0.46,0.34,0.69c0.06,0.13,0.12,0.26,0.18,0.39c0.13,0.28-0.19-0.48-0.02-0.05
			c0.4,1.01,0.71,2.04,0.93,3.1c0.27,1.28,1.85,2.14,3.08,1.75C330.35,468.99,331.03,467.72,330.74,466.35L330.74,466.35z"/>
	</g>
</g>
<g>
	<g>
		<path d="M345.55,462.59c-7.97-5.58-15.95-11.16-23.92-16.74c-1.11-0.77-2.78-0.2-3.42,0.9c-0.73,1.25-0.21,2.64,0.9,3.42
			c7.97,5.58,15.95,11.16,23.92,16.74c1.11,0.77,2.78,0.2,3.42-0.9C347.18,464.76,346.66,463.36,345.55,462.59L345.55,462.59z"/>
	</g>
</g>
<g>
	<g>
		<path d="M271.91,404.58c2.29,2.79,2.84,6.66,4.05,9.96c1.54,4.19,4.2,7.5,7.22,10.74c6.45,6.92,12.86,13.89,19.42,20.7
			c3.67,3.8,7.42,7.52,11.35,11.06c2.39,2.15,5.93-1.38,3.54-3.54c-6.93-6.23-13.3-13.04-19.65-19.85c-3.27-3.5-6.54-7-9.81-10.5
			c-2.82-3.02-5.79-5.99-7.25-9.94c-1.56-4.23-2.41-8.59-5.33-12.16c-0.86-1.04-2.65-0.89-3.54,0
			C270.88,402.08,271.05,403.54,271.91,404.58L271.91,404.58z"/>
	</g>
</g>
<g>
	<g>
		<path d="M286.64,423.26c0.3,0.6,0.6,1.2,0.9,1.8c0.16,0.29,0.37,0.53,0.64,0.7c0.24,0.22,0.52,0.37,0.85,0.45
			c0.33,0.1,0.66,0.12,1,0.04c0.33-0.02,0.64-0.11,0.93-0.3c0.17-0.13,0.34-0.26,0.51-0.39c0.31-0.31,0.52-0.68,0.64-1.1
			c0.03-0.22,0.06-0.44,0.09-0.66c0-0.45-0.12-0.87-0.34-1.26c-0.3-0.6-0.6-1.2-0.9-1.8c-0.16-0.29-0.37-0.53-0.64-0.7
			c-0.24-0.22-0.52-0.37-0.85-0.45c-0.33-0.1-0.66-0.12-1-0.04c-0.33,0.02-0.64,0.11-0.93,0.3c-0.17,0.13-0.34,0.26-0.51,0.39
			c-0.31,0.31-0.52,0.68-0.64,1.1c-0.03,0.22-0.06,0.44-0.09,0.66C286.3,422.45,286.42,422.87,286.64,423.26L286.64,423.26z"/>
	</g>
</g>
<g>
	<g>
		<path d="M284.98,426.28c0.66,2.25,2.05,4.1,3.69,5.74c1.8,1.81,3.7,3.51,5.56,5.26c3.85,3.63,7.71,7.25,11.56,10.88
			c2.34,2.2,5.88-1.32,3.54-3.54c-3.65-3.44-7.31-6.88-10.96-10.31c-1.77-1.67-3.55-3.33-5.32-5c-1.32-1.25-2.71-2.57-3.24-4.36
			C288.89,421.87,284.07,423.18,284.98,426.28L284.98,426.28z"/>
	</g>
</g>
<g>
	<g>
		<path d="M365.65,581.24c-1.31-12.11,1.67-24.32,8.47-34.43c1.8-2.68-2.53-5.18-4.32-2.52c-7.23,10.75-10.55,24.07-9.15,36.95
			c0.15,1.34,1.05,2.5,2.5,2.5C364.39,583.74,365.79,582.59,365.65,581.24L365.65,581.24z"/>
	</g>
</g>
<g>
	<g>
		<path d="M363.96,573.27c0.05-9.93,5.69-18.64,10.9-26.69c1.75-2.71-2.57-5.22-4.32-2.52c-5.71,8.84-11.53,18.34-11.58,29.21
			C358.95,576.49,363.95,576.49,363.96,573.27L363.96,573.27z"/>
	</g>
</g>
<g>
	<g>
		<path d="M356.47,578.35c4.19-9.93,10.07-19.17,16.9-27.49c0.86-1.04,1.02-2.52,0-3.54c-0.88-0.88-2.67-1.05-3.54,0
			c-7.42,9.04-13.64,18.9-18.18,29.69c-0.52,1.24,0.56,2.75,1.75,3.08C354.84,580.49,355.94,579.6,356.47,578.35L356.47,578.35z"/>
	</g>
</g>
<g>
	<g>
		<path d="M361.71,573.37c3.98-12.09,10.61-23.23,19.32-32.5c2.2-2.34-1.33-5.89-3.54-3.54c-9.32,9.92-16.36,21.79-20.61,34.71
			C355.88,575.1,360.7,576.41,361.71,573.37L361.71,573.37z"/>
	</g>
</g>
<g>
	<g>
		<path d="M375.53,541.8c-6.65,10.56-17.25,19.27-18,32.58c-0.18,3.21,4.82,3.2,5,0c0.67-12,11.32-20.54,17.31-30.06
			C381.57,541.59,377.24,539.08,375.53,541.8L375.53,541.8z"/>
	</g>
</g>
<g>
	<g>
		<path d="M365.05,574.33c-1.05-6.98,1.36-14.4,6.14-19.56c2.18-2.36-1.34-5.9-3.54-3.54c-6.1,6.59-8.75,15.58-7.42,24.42
			c0.2,1.34,1.89,2.07,3.08,1.75C364.74,577.01,365.25,575.67,365.05,574.33L365.05,574.33z"/>
	</g>
</g>
<g>
	<g>
		<path d="M365.23,572.67c1.74-7.78,4.55-15.23,8.43-22.19c1.57-2.81-2.75-5.34-4.32-2.52c-4.08,7.32-7.1,15.21-8.93,23.38
			c-0.29,1.32,0.4,2.71,1.75,3.08C363.41,574.76,364.93,574,365.23,572.67L365.23,572.67z"/>
	</g>
</g>
<g>
	<g>
		<path d="M740.36,359.49c2.57,10.09,5.14,20.19,7.71,30.28c0.79,3.12,5.62,1.8,4.82-1.33c-2.57-10.09-5.14-20.19-7.71-30.28
			C744.39,355.05,739.56,356.37,740.36,359.49L740.36,359.49z"/>
	</g>
</g>
<g>
	<g>
		<path d="M763.2,361.95c0.48,2.36,0.88,4.74,1.21,7.13c0.08,0.57,0.68,1.22,1.15,1.49c0.54,0.31,1.33,0.45,1.93,0.25
			c0.6-0.2,1.19-0.57,1.49-1.15c0.08-0.2,0.17-0.4,0.25-0.6c0.12-0.44,0.12-0.89,0-1.33c-0.32-2.39-0.73-4.77-1.21-7.13
			c-0.12-0.59-0.64-1.2-1.15-1.49c-0.54-0.31-1.33-0.45-1.93-0.25C763.59,359.32,762.92,360.58,763.2,361.95L763.2,361.95z"/>
	</g>
</g>
<g>
	<g>
		<path d="M732.69,327.45c0.28,0.43,0.53,0.88,0.76,1.34c0.03,0.06,0.32,0.74,0.19,0.4c-0.14-0.35,0.13,0.35,0.15,0.41
			c0.32,0.9,0.56,1.82,0.74,2.76c0.09,0.44,0.16,0.88,0.23,1.32c0.02,0.13,0.17,0.99,0.04,0.29c0.04,0.25,0.06,0.51,0.09,0.76
			c0.11,0.95,0.21,1.9,0.31,2.85c0.15,1.3,1.04,2.57,2.5,2.5c1.23-0.06,2.66-1.11,2.5-2.5c-0.49-4.35-0.78-8.87-3.2-12.66
			c-0.7-1.1-2.25-1.65-3.42-0.9C732.48,324.74,731.93,326.27,732.69,327.45L732.69,327.45z"/>
	</g>
</g>
<g>
	<g>
		<path d="M691.92,274.64c1.03-0.12,2.05-0.14,3.08-0.14c-0.42-0.11-0.84-0.23-1.26-0.34c8.15,5.23,14.42,12.63,19.83,20.57
			c2.88,4.23,5.5,8.6,8.08,13.02c2.59,4.44,5.13,8.92,7.34,13.57c2.53,5.31,4.52,10.85,5.84,16.58c0.72,3.13,5.54,1.81,4.82-1.33
			c-2.58-11.17-7.84-21.32-13.57-31.16c-5.41-9.27-11.12-18.58-18.61-26.36c-2.03-2.11-4.2-4.08-6.51-5.87
			c-1.24-0.97-2.51-1.9-3.82-2.77c-0.85-0.56-1.53-0.89-2.56-0.91c-0.89-0.02-1.77,0.04-2.65,0.14c-1.34,0.15-2.5,1.04-2.5,2.5
			C689.42,273.37,690.57,274.79,691.92,274.64L691.92,274.64z"/>
	</g>
</g>
<g>
	<g>
		<path d="M735.68,341.38c1.46,5,3.88,9.67,5.92,14.45c-0.42-1-0.84-1.99-1.26-2.99c1.24,2.96,2.33,5.98,2.76,9.17
			c-0.15-1.11-0.3-2.22-0.45-3.32c0.15,1.32,0.19,2.62,0.09,3.94c-0.23,3.05,1.56,6.74,3.66,8.84c2.17,2.17,5.73,3.8,8.84,3.66
			c3.23-0.14,6.59-1.21,8.84-3.66c2.34-2.55,3.4-5.38,3.66-8.84c0.7-9.25-3.84-17.54-7.34-25.74c0.42,1,0.84,1.99,1.26,2.99
			c-0.71-1.69-1.37-3.39-1.88-5.15c-0.89-3.05-2.99-5.86-5.74-7.47c-2.68-1.57-6.63-2.23-9.63-1.26c-3.02,0.98-5.94,2.85-7.47,5.74
			C735.38,334.7,734.72,338.1,735.68,341.38L735.68,341.38z"/>
	</g>
</g>
<g>
	<g>
		<path d="M719.02,305.68c1.01,1.52,2.02,3.04,3.02,4.56c0.79,1.46,1.86,2.63,3.22,3.51c1.21,1.1,2.62,1.85,4.25,2.24
			c1.66,0.52,3.32,0.6,4.98,0.22c1.66-0.08,3.21-0.57,4.65-1.48c0.84-0.65,1.69-1.3,2.53-1.95c1.55-1.56,2.62-3.4,3.21-5.52
			c0.15-1.11,0.3-2.22,0.45-3.32c-0.01-2.26-0.58-4.36-1.71-6.31c-1-1.53-2.01-3.05-3.02-4.56c-0.79-1.46-1.86-2.63-3.22-3.51
			c-1.21-1.1-2.62-1.85-4.25-2.24c-1.66-0.52-3.32-0.6-4.98-0.22c-1.66,0.08-3.21,0.57-4.65,1.48c-0.84,0.65-1.69,1.3-2.53,1.95
			c-1.55,1.56-2.62,3.4-3.21,5.52c-0.15,1.11-0.3,2.22-0.45,3.32C717.32,301.62,717.89,303.73,719.02,305.68L719.02,305.68z"/>
	</g>
</g>
<g>
	<g>
		<path d="M694.03,276.47c1.09,0.66,2.13,1.37,3.13,2.15c-0.67-0.52-1.35-1.04-2.02-1.56c3.6,2.83,6.62,6.27,9.42,9.87
			c-0.52-0.67-1.04-1.35-1.56-2.02c5.95,7.71,10.72,16.21,15.03,24.92c4.56,9.22,8.77,18.62,12.93,28.02
			c2.44,5.52,4.84,11.07,7.18,16.63c-0.34-0.8-0.67-1.59-1.01-2.39c0.89,2.11,1.77,4.21,2.65,6.32c1.04,2.52,2.15,4.54,4.6,5.98
			c2.14,1.25,5.3,1.79,7.71,1.01c2.42-0.78,4.75-2.28,5.98-4.6c1.17-2.21,2.01-5.28,1.01-7.71c-5.77-13.92-11.78-27.73-18.1-41.41
			c-5.51-11.92-11.17-23.91-18.95-34.56c-5.03-6.89-10.51-13.45-17.89-17.93c-4.48-2.71-11.19-1.14-13.68,3.59
			C687.87,267.64,689.25,273.57,694.03,276.47L694.03,276.47z"/>
	</g>
</g>
<g>
	<g>
		<path d="M719.42,291.44c0.11,0.01,0.21,0.01,0.32,0.02c-0.89-0.12-1.77-0.24-2.66-0.36c0.2,0.03,0.4,0.07,0.59,0.15
			c-0.8-0.34-1.59-0.67-2.39-1.01c0.29,0.13,0.51,0.27,0.77,0.46c-0.67-0.52-1.35-1.04-2.02-1.56c0.24,0.22,0.44,0.43,0.65,0.68
			c-0.52-0.67-1.04-1.35-1.56-2.02c0.4,0.55,0.71,1.14,0.98,1.76c-0.34-0.8-0.67-1.59-1.01-2.39c0.78,1.92,1.35,3.92,2.1,5.86
			c1,2.6,2.09,5.17,3.25,7.7c1.76,3.83,3.79,7.53,6.06,11.08c4.33,6.76,10.18,12.66,13.4,20.09c-0.34-0.8-0.67-1.59-1.01-2.39
			c0.37,0.89,0.7,1.79,0.98,2.71c0.76,2.45,2.36,4.67,4.6,5.98c2.14,1.25,5.3,1.79,7.71,1.01c5.03-1.63,8.64-6.95,6.98-12.3
			c-1.23-3.97-3.07-7.77-5.36-11.23c-1.96-2.96-4.18-5.73-6.3-8.58c-4.44-5.98-8.14-12.45-11.04-19.31c0.34,0.8,0.67,1.59,1.01,2.39
			c-1.12-2.69-1.96-5.47-3.03-8.17c-1.02-2.57-2-4.65-3.93-6.69c-2.42-2.56-5.64-3.66-9.08-3.87c-2.46-0.15-5.37,1.23-7.07,2.93
			c-1.73,1.73-3.04,4.58-2.93,7.07C709.67,287.14,713.81,291.09,719.42,291.44L719.42,291.44z"/>
	</g>
</g>
<g>
	<g>
		<path d="M739.43,301.78c4.64,8.04,8.18,16.62,10.57,25.59c0.83,3.11,5.65,1.79,4.82-1.33c-2.49-9.37-6.23-18.39-11.08-26.79
			C742.14,296.47,737.82,298.99,739.43,301.78L739.43,301.78z"/>
	</g>
</g>
<g>
	<g>
		<path d="M729.8,297.42c3.22,0,3.22-5,0-5C726.58,292.42,726.58,297.42,729.8,297.42L729.8,297.42z"/>
	</g>
</g>
<g>
	<g>
		<path d="M729.8,288.78c3.22,0,3.22-5,0-5C726.58,283.78,726.58,288.78,729.8,288.78L729.8,288.78z"/>
	</g>
</g>
<g>
	<g>
		<path d="M732.68,290.22c3.22,0,3.22-5,0-5C729.46,285.22,729.46,290.22,732.68,290.22L732.68,290.22z"/>
	</g>
</g>
<g>
	<g>
		<path d="M729.8,285.9c3.22,0,3.22-5,0-5C726.58,280.9,726.58,285.9,729.8,285.9L729.8,285.9z"/>
	</g>
</g>
<g>
	<g>
		<path d="M732.68,290.22c3.22,0,3.22-5,0-5C729.46,285.22,729.46,290.22,732.68,290.22L732.68,290.22z"/>
	</g>
</g>
<g>
	<g>
		<path d="M735.56,293.1c3.22,0,3.22-5,0-5C732.34,288.1,732.34,293.1,735.56,293.1L735.56,293.1z"/>
	</g>
</g>
<g>
	<g>
		<path d="M716.32,269.89c9.66,7.97,17.37,17.99,22.58,29.38c0.56,1.23,2.34,1.53,3.42,0.9c1.26-0.74,1.46-2.19,0.9-3.42
			c-5.36-11.72-13.41-22.19-23.36-30.39c-1.04-0.86-2.52-1.02-3.54,0C715.43,267.23,715.27,269.02,716.32,269.89L716.32,269.89z"/>
	</g>
</g>
<g>
	<g>
		<path d="M738.99,299.05c-0.02,0,0.14,0.04,0.28,0.23c-0.11-0.14,0.24,0.48,0.24,0.48c0.22,0.44,0.45,1.33,0.62,1.93
			c0.58,1.94,1.15,3.89,1.73,5.83c1.15,3.89,2.3,7.77,3.45,11.66c0.91,3.08,5.74,1.77,4.82-1.33c-1.31-4.44-2.63-8.89-3.94-13.33
			c-0.6-2.04-1.1-4.15-1.86-6.13c-0.75-1.93-1.93-3.57-4.01-4.16C737.21,293.36,735.89,298.18,738.99,299.05L738.99,299.05z"/>
	</g>
</g>
<g>
	<g>
		<path d="M748.69,322.86c2.2,6.87,4.4,13.74,6.59,20.61c0.98,3.05,5.81,1.75,4.82-1.33c-2.2-6.87-4.4-13.74-6.59-20.61
			C752.54,318.48,747.71,319.78,748.69,322.86L748.69,322.86z"/>
	</g>
</g>
<g>
	<g>
		<path d="M687.95,261.4c-0.84,1.83-1.33,3.77-1.32,5.79c0.02,2.03,0.52,3.96,1.39,5.78c0.57,1.18,2.35,1.59,3.42,0.9
			c1.21-0.78,1.5-2.16,0.9-3.42c-0.04-0.09-0.09-0.18-0.13-0.27c-0.11-0.24-0.08-0.18,0.07,0.18c-0.01-0.15-0.13-0.35-0.18-0.49
			c-0.12-0.36-0.22-0.72-0.31-1.09c-0.03-0.15-0.06-0.3-0.09-0.44c-0.02-0.1-0.03-0.2-0.05-0.3c0.05,0.42,0.06,0.49,0.03,0.22
			c-0.03-0.35-0.06-0.7-0.06-1.05c0-0.35,0.01-0.7,0.04-1.05c0.01-0.1,0.02-0.2,0.03-0.3c-0.06,0.42-0.07,0.49-0.03,0.22
			c0.03-0.15,0.05-0.3,0.08-0.44c0.07-0.34,0.16-0.69,0.26-1.02c0.06-0.19,0.13-0.38,0.2-0.57c0.1-0.25,0.07-0.19-0.08,0.18
			c0.04-0.09,0.08-0.18,0.12-0.28c0.29-0.63,0.44-1.24,0.25-1.93c-0.16-0.58-0.61-1.21-1.15-1.49
			C690.27,259.92,688.54,260.13,687.95,261.4L687.95,261.4z"/>
	</g>
</g>
<g>
	<g>
		<path d="M750.38,325.95c2.59,5.59,4.42,11.51,5.55,17.56c0.25,1.33,1.85,2.08,3.08,1.75c1.39-0.38,2-1.74,1.75-3.08
			c-1.22-6.49-3.28-12.76-6.05-18.76c-0.57-1.23-2.33-1.53-3.42-0.9C750.02,323.27,749.81,324.72,750.38,325.95L750.38,325.95z"/>
	</g>
</g>
<g>
	<g>
		<path d="M750.56,327.35c1.63,4.15,3.26,8.3,4.88,12.45c0.48,1.21,1.7,2.19,3.08,1.75c1.18-0.38,2.26-1.77,1.75-3.08
			c-1.63-4.15-3.26-8.3-4.88-12.45c-0.48-1.21-1.7-2.19-3.08-1.75C751.13,324.66,750.05,326.05,750.56,327.35L750.56,327.35z"/>
	</g>
</g>
<g>
	<g>
		<path d="M747.94,325.58c0.17,0.2,0.34,0.4,0.5,0.62c-0.37-0.51,0.14,0.2,0.2,0.29c0.31,0.43,0.6,0.87,0.87,1.32
			c0.54,0.87,1.01,1.78,1.43,2.71c0.04,0.09,0.08,0.18,0.12,0.27c-0.12-0.29-0.13-0.31-0.02-0.05c0.09,0.25,0.19,0.49,0.28,0.74
			c0.18,0.5,0.34,1,0.48,1.51c0.14,0.51,0.27,1.02,0.38,1.54c0.05,0.26,0.1,0.52,0.15,0.78c0.02,0.13,0.15,1,0.06,0.31
			c0.09,0.69,0.22,1.25,0.73,1.77c0.43,0.43,1.15,0.76,1.77,0.73c1.21-0.05,2.68-1.11,2.5-2.5c-0.67-5.05-2.64-9.65-5.91-13.57
			c-0.84-1.01-2.68-0.93-3.54,0C746.96,323.11,747.04,324.5,747.94,325.58L747.94,325.58z"/>
	</g>
</g>
</svg>
